<svg width="25" height="24" viewBox="0 0 25 24" fill="none" xmlns="http://www.w3.org/2000/svg">
<path fill-rule="evenodd" clip-rule="evenodd" d="M4.34964 4.72241C4.02103 4.47025 3.55022 4.53223 3.29806 4.86084C3.0459 5.18946 3.10787 5.66027 3.43649 5.91243L5.24304 7.29868C5.24261 7.29903 5.24218 7.29939 5.24176 7.29975L6.46509 8.23847C6.46553 8.23812 6.46597 8.23778 6.46641 8.23743L8.475 9.77871C8.47474 9.7792 8.47448 9.77968 8.47422 9.78016L9.68752 10.7112C9.68775 10.7107 9.68797 10.7102 9.6882 10.7097L14.6002 14.4788C14.5997 14.4792 14.5993 14.4795 14.5989 14.4799L15.812 15.4108C15.8124 15.4104 15.8128 15.41 15.8132 15.4096L17.4118 16.6363C17.4112 16.6366 17.4107 16.6369 17.4102 16.6372L18.6925 17.6211C18.693 17.6208 18.6935 17.6205 18.694 17.6202L20.8534 19.2772C21.182 19.5294 21.6528 19.4674 21.905 19.1388C22.1571 18.8102 22.0952 18.3394 21.7665 18.0872L19.9573 16.6989C21.0286 15.7999 21.9328 14.7086 22.6166 13.4785C23.1277 12.5591 23.1277 11.4407 22.6166 10.5213C20.6625 7.00606 16.9093 4.62479 12.5989 4.62479C10.3598 4.62479 8.27104 5.26735 6.50673 6.37764L4.34964 4.72241ZM7.78914 7.3617L9.38895 8.5893C10.2275 7.79919 11.3575 7.31498 12.6006 7.31498C15.1879 7.31498 17.2852 9.41253 17.2852 11.9999C17.2852 12.8032 17.083 13.5592 16.7268 14.22L18.734 15.7602C19.779 14.9413 20.6562 13.9178 21.3056 12.7497C21.5648 12.2835 21.5648 11.7163 21.3056 11.2501C19.6053 8.19157 16.3429 6.12479 12.5989 6.12479C10.8547 6.12479 9.21503 6.57332 7.78914 7.3617ZM15.5135 13.289C15.6882 12.8949 15.7852 12.4587 15.7852 11.9999C15.7852 10.2408 14.3594 8.81498 12.6006 8.81498C11.8437 8.81498 11.1485 9.07907 10.602 9.52015L15.5135 13.289ZM2.58109 10.5213C3.01754 9.73616 3.54374 9.00761 4.14585 8.34953L5.34084 9.26651C4.78056 9.8632 4.29294 10.5291 3.89212 11.2501C3.63296 11.7163 3.63296 12.2835 3.89212 12.7497C5.5924 15.8082 8.85479 17.875 12.5989 17.875C13.7377 17.875 14.8319 17.6838 15.8512 17.3316L17.2386 18.3962C15.8204 19.0253 14.2505 19.375 12.5989 19.375C8.28846 19.375 4.53525 16.9937 2.58109 13.4785C2.06998 12.5591 2.06998 11.4407 2.58109 10.5213ZM7.91606 11.9999C7.91606 11.7566 7.93461 11.5176 7.97037 11.2843L9.44275 12.4141C9.64577 13.9774 10.9823 15.1847 12.6006 15.1847C12.7421 15.1847 12.8815 15.1755 13.0181 15.1576L14.4908 16.2877C13.9127 16.543 13.2732 16.6847 12.6006 16.6847C10.0134 16.6847 7.91606 14.5872 7.91606 11.9999Z" fill="white"/>
</svg>
