<svg width="24" height="24" viewBox="0 0 24 24" fill="none" xmlns="http://www.w3.org/2000/svg">
<path fill-rule="evenodd" clip-rule="evenodd" d="M3.29375 11.2503C4.9941 8.19177 8.25662 6.125 12.0009 6.125C15.7451 6.125 19.0076 8.19177 20.708 11.2503C20.9671 11.7164 20.9671 12.2837 20.708 12.7499C19.0076 15.8083 15.7451 17.8751 12.0009 17.8751C8.25662 17.8751 4.9941 15.8083 3.29375 12.7499C3.03457 12.2837 3.03457 11.7164 3.29375 11.2503ZM12.0009 4.625C7.69032 4.625 3.93698 7.00622 1.98273 10.5214C1.47158 11.4408 1.47158 12.5593 1.98273 13.4787C3.93698 16.9939 7.69032 19.3751 12.0009 19.3751C16.3114 19.3751 20.0647 16.9939 22.019 13.4787C22.5301 12.5593 22.5301 11.4408 22.019 10.5214C20.0647 7.00622 16.3114 4.625 12.0009 4.625ZM8.81375 12.0001C8.81375 10.241 10.2396 8.81519 11.9983 8.81519C13.7571 8.81519 15.1829 10.241 15.1829 12.0001C15.1829 13.7591 13.7571 15.1849 11.9983 15.1849C10.2396 15.1849 8.81375 13.7591 8.81375 12.0001ZM11.9983 7.31519C9.41105 7.31519 7.31375 9.41273 7.31375 12.0001C7.31375 14.5874 9.41105 16.6849 11.9983 16.6849C14.5856 16.6849 16.6829 14.5874 16.6829 12.0001C16.6829 9.41273 14.5856 7.31519 11.9983 7.31519Z" fill="white"/>
</svg>
